AmstelvarAlpha-opsz-min.ufo
<glyph name="exclam" format="1">
  <advance width="633"/>
  <unicode hex="0021"/>
  <outline>
    <contour>
      <point x="160" y="132" type="qcurve" smooth="yes"/>
      <point x="160" y="194"/>
      <point x="248" y="286"/>
      <point x="317" y="286" type="qcurve" smooth="yes"/>
      <point x="385" y="286"/>
      <point x="474" y="194"/>
      <point x="474" y="132" type="qcurve" smooth="yes"/>
      <point x="474" y="71"/>
      <point x="385" y="-22"/>
      <point x="317" y="-22" type="qcurve" smooth="yes"/>
      <point x="248" y="-22"/>
      <point x="160" y="71"/>
    </contour>
    <contour>
      <point x="203" y="1519" type="line"/>
      <point x="430" y="1519" type="line"/>
      <point x="418" y="1108" type="line"/>
      <point x="387" y="800" type="line"/>
      <point x="380" y="451" type="line"/>
      <point x="252" y="451" type="line"/>
      <point x="245" y="800" type="line"/>
      <point x="215" y="1108" type="line"/>
    </contour>
  </outline>
</glyph>
<glyph name="comma" format="1">
  <advance width="614"/>
  <unicode hex="002C"/>
  <outline>
    <contour>
      <point x="124" y="-213" type="line"/>
      <point x="167" y="-183"/>
      <point x="268" y="-79"/>
      <point x="288" y="-10" type="qcurve"/>
      <point x="212" y="1"/>
      <point x="149" y="72"/>
      <point x="149" y="136" type="qcurve" smooth="yes"/>
      <point x="149" y="198"/>
      <point x="238" y="292"/>
      <point x="307" y="292" type="qcurve" smooth="yes"/>
      <point x="373" y="292"/>
      <point x="466" y="209"/>
      <point x="466" y="126" type="qcurve" smooth="yes"/>
      <point x="466" y="-3"/>
      <point x="303" y="-230"/>
      <point x="196" y="-289" type="qcurve"/>
    </contour>
  </outline>
</glyph>
<glyph name="hyphen" format="1">
  <advance width="771"/>
  <unicode hex="002D"/>
  <outline>
    <contour>
      <point x="80" y="569" type="line"/>
      <point x="80" y="745" type="line"/>
      <point x="386" y="741" type="line"/>
      <point x="691" y="745" type="line"/>
      <point x="691" y="569" type="line"/>
      <point x="386" y="573" type="line"/>
    </contour>
  </outline>
</glyph>
<glyph name="slash" format="1">
  <advance width="685"/>
  <unicode hex="002F"/>
  <outline>
    <contour>
      <point x="-38" y="-120" type="line"/>
      <point x="577" y="1549" type="line"/>
      <point x="715" y="1510" type="line"/>
      <point x="101" y="-159" type="line"/>
    </contour>
  </outline>
</glyph>
<glyph name="three" format="1">
  <advance width="1015"/>
  <unicode hex="0033"/>
  <outline>
    <contour>
      <point x="4" y="114" type="qcurve"/>
      <point x="4" y="305" type="line"/>
      <point x="95" y="220"/>
      <point x="324" y="143"/>
      <point x="443" y="143" type="qcurve" smooth="yes"/>
      <point x="572" y="143"/>
      <point x="741" y="280"/>
      <point x="741" y="425" type="qcurve" smooth="yes"/>
      <point x="741" y="572"/>
      <point x="513" y="714"/>
      <point x="311" y="714" type="qcurve" smooth="yes"/>
      <point x="258" y="714" type="line"/>
      <point x="206" y="868" type="line"/>
      <point x="334" y="873" type="line" smooth="yes"/>
      <point x="514" y="881"/>
      <point x="713" y="1015"/>
      <point x="713" y="1140" type="qcurve" smooth="yes"/>
      <point x="713" y="1237"/>
      <point x="579" y="1339"/>
      <point x="457" y="1339" type="qcurve" smooth="yes"/>
      <point x="350" y="1339"/>
      <point x="174" y="1282"/>
      <point x="63" y="1210" type="qcurve"/>
      <point x="61" y="1385" type="line"/>
      <point x="147" y="1455"/>
      <point x="357" y="1520"/>
      <point x="520" y="1520" type="qcurve" smooth="yes"/>
      <point x="704" y="1520"/>
      <point x="951" y="1333"/>
      <point x="951" y="1185" type="qcurve" smooth="yes"/>
      <point x="951" y="1026"/>
      <point x="785" y="855"/>
      <point x="627" y="802" type="qcurve"/>
      <point x="627" y="795" type="line"/>
      <point x="781" y="769"/>
      <point x="985" y="567"/>
      <point x="985" y="393" type="qcurve" smooth="yes"/>
      <point x="985" y="199"/>
      <point x="704" y="-26"/>
      <point x="506" y="-26" type="qcurve" smooth="yes"/>
      <point x="328" y="-26"/>
      <point x="80" y="50"/>
    </contour>
  </outline>
</glyph>
<glyph name="five" format="1">
  <advance width="1024"/>
  <unicode hex="0035"/>
  <outline>
    <contour>
      <point x="2" y="101" type="qcurve"/>
      <point x="2" y="287" type="line"/>
      <point x="95" y="215"/>
      <point x="322" y="152"/>
      <point x="463" y="152" type="qcurve" smooth="yes"/>
      <point x="589" y="152"/>
      <point x="755" y="314"/>
      <point x="755" y="470" type="qcurve" smooth="yes"/>
      <point x="755" y="620"/>
      <point x="505" y="788"/>
      <point x="299" y="788" type="qcurve" smooth="yes"/>
      <point x="139" y="788" type="line"/>
      <point x="201" y="895" type="line"/>
      <point x="404" y="932" type="line"/>
      <point x="711" y="932"/>
      <point x="988" y="667"/>
      <point x="988" y="485" type="qcurve" smooth="yes"/>
      <point x="988" y="242"/>
      <point x="712" y="-26"/>
      <point x="504" y="-26" type="qcurve" smooth="yes"/>
      <point x="327" y="-26"/>
      <point x="78" y="43"/>
    </contour>
    <contour>
      <point x="139" y="788" type="qcurve"/>
      <point x="212" y="1467" type="line"/>
      <point x="239" y="1500" type="line"/>
      <point x="908" y="1500" type="line"/>
      <point x="896" y="1303" type="line"/>
      <point x="366" y="1303" type="line"/>
      <point x="356" y="1292" type="line"/>
      <point x="316" y="1002"/>
      <point x="270" y="788"/>
    </contour>
  </outline>
</glyph>
<glyph name="colon" format="1">
  <advance width="693"/>
  <unicode hex="003A"/>
  <outline>
    <contour>
      <point x="187" y="131" type="qcurve" smooth="yes"/>
      <point x="187" y="191"/>
      <point x="278" y="276"/>
      <point x="347" y="276" type="qcurve" smooth="yes"/>
      <point x="418" y="276"/>
      <point x="506" y="191"/>
      <point x="506" y="131" type="qcurve" smooth="yes"/>
      <point x="506" y="70"/>
      <point x="419" y="-22"/>
      <point x="347" y="-22" type="qcurve" smooth="yes"/>
      <point x="276" y="-22"/>
      <point x="187" y="70"/>
    </contour>
    <contour>
      <point x="187" y="931" type="qcurve" smooth="yes"/>
      <point x="187" y="992"/>
      <point x="276" y="1083"/>
      <point x="347" y="1083" type="qcurve" smooth="yes"/>
      <point x="417" y="1083"/>
      <point x="506" y="992"/>
      <point x="506" y="931" type="qcurve" smooth="yes"/>
      <point x="506" y="871"/>
      <point x="416" y="786"/>
      <point x="347" y="786" type="qcurve" smooth="yes"/>
      <point x="278" y="786"/>
      <point x="187" y="871"/>
    </contour>
  </outline>
</glyph>
<glyph name="semicolon" format="1">
  <advance width="686"/>
  <unicode hex="003B"/>
  <outline>
    <contour>
      <point x="162" y="-214" type="line"/>
      <point x="204" y="-181"/>
      <point x="304" y="-80"/>
      <point x="323" y="-11" type="qcurve"/>
      <point x="255" y="-3"/>
      <point x="188" y="68"/>
      <point x="188" y="132" type="qcurve" smooth="yes"/>
      <point x="188" y="190"/>
      <point x="276" y="276"/>
      <point x="347" y="276" type="qcurve" smooth="yes"/>
      <point x="414" y="276"/>
      <point x="506" y="200"/>
      <point x="506" y="123" type="qcurve" smooth="yes"/>
      <point x="506" y="-2"/>
      <point x="339" y="-230"/>
      <point x="232" y="-289" type="qcurve"/>
    </contour>
    <contour>
      <point x="187" y="931" type="qcurve" smooth="yes"/>
      <point x="187" y="992"/>
      <point x="276" y="1083"/>
      <point x="347" y="1083" type="qcurve" smooth="yes"/>
      <point x="417" y="1083"/>
      <point x="506" y="992"/>
      <point x="506" y="931" type="qcurve" smooth="yes"/>
      <point x="506" y="871"/>
      <point x="416" y="786"/>
      <point x="347" y="786" type="qcurve" smooth="yes"/>
      <point x="278" y="786"/>
      <point x="187" y="871"/>
    </contour>
  </outline>
</glyph>
<glyph name="equal" format="1">
  <advance width="1061"/>
  <unicode hex="003D"/>
  <outline>
    <contour>
      <point x="110" y="319" type="line"/>
      <point x="110" y="498" type="line"/>
      <point x="529" y="494" type="line"/>
      <point x="951" y="498" type="line"/>
      <point x="951" y="319" type="line"/>
      <point x="529" y="323" type="line"/>
    </contour>
    <contour>
      <point x="110" y="734" type="line"/>
      <point x="110" y="913" type="line"/>
      <point x="529" y="909" type="line"/>
      <point x="951" y="913" type="line"/>
      <point x="951" y="734" type="line"/>
      <point x="529" y="738" type="line"/>
    </contour>
  </outline>
</glyph>
<glyph name="question" format="1">
  <advance width="940"/>
  <unicode hex="003F"/>
  <outline>
    <contour>
      <point x="175" y="132" type="qcurve" smooth="yes"/>
      <point x="175" y="194"/>
      <point x="263" y="285"/>
      <point x="332" y="285" type="qcurve" smooth="yes"/>
      <point x="400" y="285"/>
      <point x="489" y="194"/>
      <point x="489" y="132" type="qcurve" smooth="yes"/>
      <point x="489" y="71"/>
      <point x="400" y="-22"/>
      <point x="332" y="-22" type="qcurve" smooth="yes"/>
      <point x="263" y="-22"/>
      <point x="175" y="71"/>
    </contour>
    <contour>
      <point x="-7" y="1351" type="line"/>
      <point x="58" y="1429"/>
      <point x="275" y="1540"/>
      <point x="449" y="1540" type="qcurve" smooth="yes"/>
      <point x="662" y="1540"/>
      <point x="920" y="1308"/>
      <point x="920" y="1123" type="qcurve" smooth="yes"/>
      <point x="920" y="930"/>
      <point x="689" y="708"/>
      <point x="528" y="708" type="qcurve" smooth="yes"/>
      <point x="497" y="708"/>
      <point x="419" y="713"/>
      <point x="392" y="722" type="qcurve"/>
      <point x="382" y="447" type="line"/>
      <point x="249" y="447" type="line"/>
      <point x="251" y="610" type="line"/>
      <point x="241" y="833" type="line"/>
      <point x="272" y="864" type="line"/>
      <point x="300" y="860"/>
      <point x="429" y="853"/>
      <point x="464" y="853" type="qcurve" smooth="yes"/>
      <point x="557" y="853"/>
      <point x="695" y="997"/>
      <point x="695" y="1127" type="qcurve" smooth="yes"/>
      <point x="695" y="1262"/>
      <point x="535" y="1394"/>
      <point x="411" y="1394" type="qcurve" smooth="yes"/>
      <point x="302" y="1394"/>
      <point x="138" y="1318"/>
      <point x="76" y="1259" type="qcurve"/>
    </contour>
  </outline>
</glyph>
<glyph name="at" format="1">
  <advance width="1707"/>
  <unicode hex="0040"/>
  <outline>
    <contour>
      <point x="66" y="746" type="qcurve" smooth="yes"/>
      <point x="66" y="1068"/>
      <point x="508" y="1520"/>
      <point x="853" y="1520" type="qcurve" smooth="yes"/>
      <point x="1198" y="1520"/>
      <point x="1653" y="1146"/>
      <point x="1653" y="834" type="qcurve" smooth="yes"/>
      <point x="1653" y="592"/>
      <point x="1407" y="350"/>
      <point x="1256" y="350" type="qcurve" smooth="yes"/>
      <point x="1145" y="350"/>
      <point x="1002" y="444"/>
      <point x="1003" y="584" type="qcurve" smooth="yes"/>
      <point x="1005" y="834" type="line" smooth="yes"/>
      <point x="1006" y="964"/>
      <point x="898" y="1054"/>
      <point x="784" y="1054" type="qcurve" smooth="yes"/>
      <point x="708" y="1054"/>
      <point x="599" y="1017"/>
      <point x="563" y="992" type="qcurve"/>
      <point x="502" y="1074" type="line"/>
      <point x="527" y="1107"/>
      <point x="690" y="1191"/>
      <point x="827" y="1191" type="qcurve" smooth="yes"/>
      <point x="977" y="1191"/>
      <point x="1166" y="1027"/>
      <point x="1168" y="826" type="qcurve" smooth="yes"/>
      <point x="1172" y="482" type="line"/>
      <point x="1195" y="472"/>
      <point x="1236" y="467"/>
      <point x="1272" y="467" type="qcurve" smooth="yes"/>
      <point x="1378" y="467"/>
      <point x="1512" y="642"/>
      <point x="1512" y="815" type="qcurve" smooth="yes"/>
      <point x="1512" y="1058"/>
      <point x="1159" y="1380"/>
      <point x="865" y="1380" type="qcurve" smooth="yes"/>
      <point x="572" y="1380"/>
      <point x="217" y="1047"/>
      <point x="219" y="760" type="qcurve" smooth="yes"/>
      <point x="221" y="470"/>
      <point x="575" y="89"/>
      <point x="860" y="89" type="qcurve" smooth="yes"/>
      <point x="986" y="89"/>
      <point x="1183" y="147"/>
      <point x="1238" y="182" type="qcurve"/>
      <point x="1292" y="108" type="line"/>
      <point x="1213" y="43"/>
      <point x="985" y="-30"/>
      <point x="854" y="-30" type="qcurve" smooth="yes"/>
      <point x="515" y="-30"/>
      <point x="66" y="399"/>
    </contour>
    <contour>
      <point x="466" y="569" type="qcurve" smooth="yes"/>
      <point x="466" y="670"/>
      <point x="729" y="849"/>
      <point x="1032" y="898" type="qcurve"/>
      <point x="1041" y="783" type="line"/>
      <point x="860" y="760"/>
      <point x="636" y="668"/>
      <point x="636" y="584" type="qcurve" smooth="yes"/>
      <point x="636" y="519"/>
      <point x="734" y="461"/>
      <point x="813" y="461" type="qcurve" smooth="yes"/>
      <point x="897" y="461"/>
      <point x="1019" y="539"/>
      <point x="1028" y="574" type="qcurve"/>
      <point x="1077" y="568" type="line"/>
      <point x="1079" y="487"/>
      <point x="883" y="338"/>
      <point x="747" y="338" type="qcurve" smooth="yes"/>
      <point x="608" y="338"/>
      <point x="466" y="467"/>
    </contour>
  </outline>
</glyph>
<glyph name="J" format="1">
  <advance width="704"/>
  <unicode hex="004A"/>
  <outline>
    <contour>
      <point x="16" y="0" type="qcurve"/>
      <point x="16" y="150" type="line"/>
      <point x="87" y="150" type="line" smooth="yes"/>
      <point x="193" y="150"/>
      <point x="295" y="265"/>
      <point x="294" y="407" type="qcurve" smooth="yes"/>
      <point x="292" y="754" type="line"/>
      <point x="290" y="1302" type="line"/>
      <point x="52" y="1336" type="line"/>
      <point x="52" y="1500" type="line"/>
      <point x="704" y="1500" type="line"/>
      <point x="704" y="1336" type="line"/>
      <point x="514" y="1302" type="line"/>
      <point x="512" y="754" type="line"/>
      <point x="514" y="460" type="line" smooth="yes"/>
      <point x="516" y="214"/>
      <point x="339" y="-17"/>
      <point x="211" y="-17" type="qcurve" smooth="yes"/>
      <point x="154" y="-17"/>
      <point x="54" y="-9"/>
    </contour>
  </outline>
</glyph>
<glyph name="asciicircum" format="1">
  <advance width="1343"/>
  <unicode hex="005E"/>
  <outline>
    <contour>
      <point x="651" y="1524" type="qcurve" smooth="yes"/>
      <point x="659" y="1524"/>
      <point x="1166" y="986"/>
      <point x="1220" y="922" type="qcurve" smooth="yes"/>
      <point x="1273" y="859"/>
      <point x="1183" y="770"/>
      <point x="1125" y="822" type="qcurve" smooth="yes"/>
      <point x="989" y="944"/>
      <point x="655" y="1255"/>
      <point x="654" y="1255" type="qcurve" smooth="yes"/>
      <point x="653" y="1255"/>
      <point x="352" y="946"/>
      <point x="218" y="824" type="qcurve" smooth="yes"/>
      <point x="160" y="772"/>
      <point x="69" y="858"/>
      <point x="122" y="921" type="qcurve" smooth="yes"/>
      <point x="175" y="985"/>
      <point x="642" y="1524"/>
    </contour>
  </outline>
</glyph>
<glyph name="underscore" format="1">
  <advance width="1448"/>
  <unicode hex="005F"/>
  <outline>
    <contour>
      <point x="-20" y="-502" type="line"/>
      <point x="-20" y="-337" type="line"/>
      <point x="728" y="-327" type="line"/>
      <point x="1468" y="-337" type="line"/>
      <point x="1468" y="-502" type="line"/>
      <point x="728" y="-505" type="line"/>
    </contour>
  </outline>
</glyph>
<glyph name="a" format="1">
  <advance width="1113"/>
  <unicode hex="0061"/>
  <outline>
    <contour>
      <point x="38" y="300" type="qcurve" smooth="yes"/>
      <point x="38" y="441"/>
      <point x="347" y="666"/>
      <point x="723" y="725" type="qcurve"/>
      <point x="733" y="596" type="line"/>
      <point x="505" y="566"/>
      <point x="255" y="424"/>
      <point x="255" y="316" type="qcurve" smooth="yes"/>
      <point x="255" y="226"/>
      <point x="382" y="132"/>
      <point x="469" y="132" type="qcurve" smooth="yes"/>
      <point x="562" y="132"/>
      <point x="709" y="230"/>
      <point x="718" y="275" type="qcurve"/>
      <point x="775" y="264" type="line"/>
      <point x="777" y="164"/>
      <point x="547" y="-15"/>
      <point x="378" y="-15" type="qcurve" smooth="yes"/>
      <point x="209" y="-15"/>
      <point x="38" y="162"/>
    </contour>
    <contour>
      <point x="100" y="922" type="line"/>
      <point x="129" y="970"/>
      <point x="329" y="1072"/>
      <point x="484" y="1072" type="qcurve" smooth="yes"/>
      <point x="683" y="1072"/>
      <point x="911" y="869"/>
      <point x="914" y="625" type="qcurve" smooth="yes"/>
      <point x="919" y="172" type="line"/>
      <point x="1067" y="137" type="line"/>
      <point x="1067" y="0" type="line"/>
      <point x="776" y="0" type="line"/>
      <point x="725" y="60" type="line"/>
      <point x="705" y="162" type="line"/>
      <point x="708" y="637" type="line" smooth="yes"/>
      <point x="709" y="781"/>
      <point x="567" y="896"/>
      <point x="428" y="896" type="qcurve" smooth="yes"/>
      <point x="333" y="896"/>
      <point x="196" y="852"/>
      <point x="153" y="827" type="qcurve"/>
    </contour>
  </outline>
</glyph>
<glyph name="j" format="1">
  <advance width="599"/>
  <unicode hex="006A"/>
  <outline>
    <contour>
      <point x="40" y="-460" type="line"/>
      <point x="40" y="-313" type="line"/>
      <point x="221" y="-278" type="line"/>
      <point x="219" y="552" type="line"/>
      <point x="213" y="835" type="line"/>
      <point x="45" y="865" type="line"/>
      <point x="45" y="1016" type="line"/>
      <point x="367" y="1050" type="line"/>
      <point x="414" y="1050" type="line"/>
      <point x="437" y="1011" type="line"/>
      <point x="431" y="552" type="line"/>
      <point x="433" y="-260" type="line" smooth="yes"/>
      <point x="433" y="-388"/>
      <point x="318" y="-492"/>
      <point x="217" y="-492" type="qcurve"/>
    </contour>
    <contour>
      <point x="173" y="1346" type="qcurve" smooth="yes"/>
      <point x="173" y="1409"/>
      <point x="249" y="1483"/>
      <point x="320" y="1483" type="qcurve" smooth="yes"/>
      <point x="387" y="1483"/>
      <point x="467" y="1406"/>
      <point x="467" y="1346" type="qcurve" smooth="yes"/>
      <point x="467" y="1288"/>
      <point x="398" y="1225"/>
      <point x="320" y="1225" type="qcurve" smooth="yes"/>
      <point x="246" y="1225"/>
      <point x="173" y="1291"/>
    </contour>
  </outline>
</glyph>
<glyph name="n" format="1">
  <advance width="1351"/>
  <unicode hex="006E"/>
  <outline>
    <contour>
      <point x="76" y="0" type="line"/>
      <point x="76" y="137" type="line"/>
      <point x="224" y="172" type="line"/>
      <point x="226" y="552" type="line"/>
      <point x="224" y="835" type="line"/>
      <point x="76" y="865" type="line"/>
      <point x="76" y="1016" type="line"/>
      <point x="377" y="1050" type="line"/>
      <point x="412" y="1023" type="line"/>
      <point x="437" y="922" type="line"/>
      <point x="435" y="552" type="line"/>
      <point x="437" y="172" type="line"/>
      <point x="575" y="137" type="line"/>
      <point x="575" y="0" type="line"/>
    </contour>
    <contour>
      <point x="432" y="729" type="qcurve"/>
      <point x="382" y="836" type="line"/>
      <point x="433" y="939"/>
      <point x="670" y="1071"/>
      <point x="804" y="1071" type="qcurve" smooth="yes"/>
      <point x="973" y="1071"/>
      <point x="1137" y="921"/>
      <point x="1137" y="791" type="qcurve" smooth="yes"/>
      <point x="1137" y="717"/>
      <point x="1132" y="552"/>
      <point x="1132" y="552" type="qcurve"/>
      <point x="1137" y="172" type="line"/>
      <point x="1285" y="137" type="line"/>
      <point x="1285" y="0" type="line"/>
      <point x="765" y="0" type="line"/>
      <point x="765" y="137" type="line"/>
      <point x="923" y="172" type="line"/>
      <point x="925" y="552" type="line"/>
      <point x="925" y="711" type="line" smooth="yes"/>
      <point x="925" y="794"/>
      <point x="817" y="886"/>
      <point x="728" y="886" type="qcurve" smooth="yes"/>
      <point x="638" y="886"/>
      <point x="477" y="798"/>
    </contour>
  </outline>
</glyph>
<glyph name="r" format="1">
  <advance width="913"/>
  <unicode hex="0072"/>
  <outline>
    <contour>
      <point x="76" y="0" type="line"/>
      <point x="76" y="137" type="line"/>
      <point x="224" y="172" type="line"/>
      <point x="226" y="552" type="line"/>
      <point x="224" y="835" type="line"/>
      <point x="76" y="865" type="line"/>
      <point x="76" y="1016" type="line"/>
      <point x="377" y="1050" type="line"/>
      <point x="412" y="1023" type="line"/>
      <point x="437" y="922" type="line"/>
      <point x="435" y="552" type="line"/>
      <point x="437" y="172" type="line"/>
      <point x="595" y="137" type="line"/>
      <point x="595" y="0" type="line"/>
    </contour>
    <contour>
      <point x="412" y="711" type="qcurve"/>
      <point x="378" y="817" type="line"/>
      <point x="422" y="917"/>
      <point x="631" y="1051"/>
      <point x="790" y="1051" type="qcurve" smooth="yes"/>
      <point x="894" y="1051" type="line"/>
      <point x="894" y="748" type="line"/>
      <point x="743" y="748" type="line"/>
      <point x="709" y="875" type="line"/>
      <point x="638" y="875"/>
      <point x="475" y="795"/>
    </contour>
  </outline>
</glyph>
<glyph name="t" format="1">
  <advance width="660"/>
  <unicode hex="0074"/>
  <outline>
    <contour>
      <point x="16" y="865" type="line"/>
      <point x="16" y="996" type="line"/>
      <point x="116" y="1024"/>
      <point x="227" y="1171"/>
      <point x="254" y="1238" type="qcurve"/>
      <point x="387" y="1238" type="line"/>
      <point x="408" y="1210" type="line"/>
      <point x="391" y="552" type="line"/>
      <point x="400" y="224" type="line"/>
      <point x="449" y="167" type="line"/>
      <point x="595" y="167" type="line"/>
      <point x="595" y="30" type="line"/>
      <point x="341" y="-8" type="line"/>
      <point x="262" y="-8"/>
      <point x="174" y="74"/>
      <point x="174" y="184" type="qcurve" smooth="yes"/>
      <point x="181" y="552" type="line"/>
      <point x="181" y="853" type="line"/>
    </contour>
    <contour>
      <point x="342" y="865" type="line"/>
      <point x="346" y="1024" type="line"/>
      <point x="618" y="1024" type="line"/>
      <point x="618" y="865" type="line"/>
    </contour>
  </outline>
</glyph>
<glyph name="v" format="1">
  <advance width="1116"/>
  <unicode hex="0076"/>
  <outline>
    <contour>
      <point x="-10" y="903" type="line"/>
      <point x="-10" y="1050" type="line"/>
      <point x="479" y="1050" type="line"/>
      <point x="479" y="903" type="line"/>
      <point x="339" y="866" type="line"/>
      <point x="449" y="561" type="line"/>
      <point x="573" y="231" type="line"/>
      <point x="705" y="572" type="line"/>
      <point x="812" y="873" type="line"/>
      <point x="675" y="903" type="line"/>
      <point x="675" y="1050" type="line"/>
      <point x="1126" y="1050" type="line"/>
      <point x="1126" y="903" type="line"/>
      <point x="971" y="868" type="line"/>
      <point x="837" y="523" type="line"/>
      <point x="643" y="-8" type="line"/>
      <point x="461" y="-8" type="line"/>
      <point x="267" y="504" type="line"/>
      <point x="122" y="868" type="line"/>
    </contour>
  </outline>
</glyph>
<glyph name="braceleft" format="1">
  <advance width="726"/>
  <unicode hex="007B"/>
  <outline>
    <contour>
      <point x="60" y="452" type="line"/>
      <point x="60" y="628" type="line"/>
      <point x="191" y="638" type="line" smooth="yes"/>
      <point x="247" y="642"/>
      <point x="301" y="696"/>
      <point x="301" y="752" type="qcurve" smooth="yes"/>
      <point x="301" y="863"/>
      <point x="186" y="1085"/>
      <point x="186" y="1198" type="qcurve" smooth="yes"/>
      <point x="186" y="1350"/>
      <point x="363" y="1510"/>
      <point x="519" y="1510" type="qcurve" smooth="yes"/>
      <point x="590" y="1510"/>
      <point x="679" y="1503"/>
      <point x="716" y="1500" type="qcurve"/>
      <point x="716" y="1311" type="line"/>
      <point x="664" y="1312"/>
      <point x="601" y="1312"/>
      <point x="552" y="1312" type="qcurve" smooth="yes"/>
      <point x="470" y="1312"/>
      <point x="379" y="1228"/>
      <point x="379" y="1138" type="qcurve" smooth="yes"/>
      <point x="379" y="1046"/>
      <point x="490" y="851"/>
      <point x="490" y="768" type="qcurve" smooth="yes"/>
      <point x="490" y="681"/>
      <point x="419" y="565"/>
      <point x="358" y="546" type="qcurve"/>
      <point x="431" y="516"/>
      <point x="490" y="396"/>
      <point x="490" y="330" type="qcurve" smooth="yes"/>
      <point x="490" y="246"/>
      <point x="369" y="-28"/>
      <point x="369" y="-122" type="qcurve" smooth="yes"/>
      <point x="369" y="-211"/>
      <point x="465" y="-298"/>
      <point x="547" y="-298" type="qcurve" smooth="yes"/>
      <point x="596" y="-298"/>
      <point x="659" y="-298"/>
      <point x="711" y="-297" type="qcurve"/>
      <point x="711" y="-484" type="line"/>
      <point x="674" y="-487"/>
      <point x="587" y="-495"/>
      <point x="516" y="-495" type="qcurve" smooth="yes"/>
      <point x="355" y="-495"/>
      <point x="176" y="-327"/>
      <point x="176" y="-168" type="qcurve" smooth="yes"/>
      <point x="176" y="-50"/>
      <point x="300" y="246"/>
      <point x="300" y="364" type="qcurve" smooth="yes"/>
      <point x="300" y="452" type="line"/>
    </contour>
  </outline>
</glyph>
<glyph name="braceright" format="1">
  <advance width="726"/>
  <unicode hex="007D"/>
  <outline>
    <contour>
      <point x="666" y="452" type="line"/>
      <point x="426" y="452" type="line"/>
      <point x="426" y="364" type="line" smooth="yes"/>
      <point x="426" y="246"/>
      <point x="550" y="-50"/>
      <point x="550" y="-168" type="qcurve" smooth="yes"/>
      <point x="550" y="-327"/>
      <point x="371" y="-495"/>
      <point x="210" y="-495" type="qcurve" smooth="yes"/>
      <point x="139" y="-495"/>
      <point x="52" y="-487"/>
      <point x="15" y="-484" type="qcurve"/>
      <point x="15" y="-297" type="line"/>
      <point x="67" y="-298"/>
      <point x="130" y="-298"/>
      <point x="179" y="-298" type="qcurve" smooth="yes"/>
      <point x="261" y="-298"/>
      <point x="357" y="-211"/>
      <point x="357" y="-122" type="qcurve" smooth="yes"/>
      <point x="357" y="-28"/>
      <point x="236" y="246"/>
      <point x="236" y="330" type="qcurve" smooth="yes"/>
      <point x="236" y="396"/>
      <point x="296" y="516"/>
      <point x="368" y="546" type="qcurve"/>
      <point x="307" y="565"/>
      <point x="236" y="681"/>
      <point x="236" y="768" type="qcurve" smooth="yes"/>
      <point x="236" y="851"/>
      <point x="347" y="1046"/>
      <point x="347" y="1138" type="qcurve" smooth="yes"/>
      <point x="347" y="1228"/>
      <point x="256" y="1312"/>
      <point x="174" y="1312" type="qcurve" smooth="yes"/>
      <point x="125" y="1312"/>
      <point x="62" y="1312"/>
      <point x="10" y="1311" type="qcurve"/>
      <point x="10" y="1500" type="line"/>
      <point x="47" y="1503"/>
      <point x="136" y="1510"/>
      <point x="207" y="1510" type="qcurve" smooth="yes"/>
      <point x="363" y="1510"/>
      <point x="540" y="1350"/>
      <point x="540" y="1198" type="qcurve" smooth="yes"/>
      <point x="540" y="1085"/>
      <point x="425" y="863"/>
      <point x="425" y="752" type="qcurve" smooth="yes"/>
      <point x="425" y="696"/>
      <point x="479" y="642"/>
      <point x="535" y="638" type="qcurve" smooth="yes"/>
      <point x="666" y="628" type="line"/>
    </contour>
  </outline>
</glyph>
<glyph name="asciitilde" format="1">
  <advance width="1056"/>
  <unicode hex="007E"/>
  <outline>
    <contour>
      <point x="18" y="612" type="line"/>
      <point x="80" y="705"/>
      <point x="272" y="817"/>
      <point x="360" y="817" type="qcurve"/>
      <point x="710" y="697" type="line"/>
      <point x="773" y="697"/>
      <point x="879" y="789"/>
      <point x="913" y="843" type="qcurve"/>
      <point x="1038" y="750" type="line"/>
      <point x="988" y="646"/>
      <point x="831" y="505"/>
      <point x="699" y="505" type="qcurve"/>
      <point x="365" y="618" type="line"/>
      <point x="302" y="618"/>
      <point x="176" y="555"/>
      <point x="118" y="503" type="qcurve"/>
    </contour>
  </outline>
</glyph>
